<svg width="100" height="82" viewBox="0 0 100 82" fill="none" xmlns="http://www.w3.org/2000/svg">
<path d="M99.9167 77.2401C99.9084 78.4329 99.4312 79.5745 98.5882 80.4183C97.7452 81.2621 96.6041 81.7405 95.4113 81.75H13.5887C12.3934 81.7488 11.2474 81.2731 10.4026 80.4275C9.55786 79.5818 9.08333 78.4354 9.08333 77.2401V72.6667H90.8333V19.5292L54.5 52.2292L9.08333 11.3542V4.54167C9.08333 3.33714 9.56183 2.18195 10.4136 1.33022C11.2653 0.478495 12.4205 0 13.625 0H95.375C96.5795 0 97.7347 0.478495 98.5865 1.33022C99.4382 2.18195 99.9167 3.33714 99.9167 4.54167V77.2401ZM20.1378 9.08333L54.5 40.0121L88.8623 9.08333H20.1378ZM0 54.5H36.3333V63.5833H0V54.5ZM0 31.7917H22.7083V40.875H0V31.7917Z" fill="currentColor"/>
</svg>
